# Blender v2.79 (sub 0) OBJ File: ''
# www.blender.org
o Cube.001
v -10.734380 0.926258 5.090472
v -10.734380 4.463863 5.090472
v -10.734380 0.926258 -5.090472
v -10.734380 4.463863 -5.090472
v 10.323597 0.926258 5.090472
v 10.323597 4.463863 5.090472
v 10.323597 0.926258 -5.090472
v 10.323597 4.463863 -5.090472
v -10.734380 0.926258 -4.072378
v -10.734380 0.926258 4.072378
v -10.734380 4.463863 4.072378
v -10.734380 4.463863 -4.072378
v 10.323597 0.926258 4.072378
v 10.323597 0.926258 -4.072378
v 10.323597 4.463863 -4.072378
v 10.323597 4.463863 4.072378
v 9.270700 0.926258 -5.090472
v -9.681482 0.926258 -5.090472
v -9.681482 4.463863 -5.090472
v 9.270700 4.463863 -5.090472
v -9.681482 0.926258 5.090472
v 9.270700 0.926258 5.090472
v 9.270700 4.463863 5.090472
v -9.681482 4.463863 5.090472
v -9.681482 4.607863 -4.072378
v 9.270700 4.872774 -4.072378
v -9.681482 4.607863 4.072378
v 9.270700 4.967123 4.072378
v 9.270700 0.926258 -4.072378
v -9.681482 0.926258 -4.072378
v 9.270700 0.926258 4.072378
v -9.681482 0.926258 4.072378
v -10.734380 -0.234483 4.072378
v -10.734380 -0.234483 5.090472
v -9.681482 -0.234483 -5.090472
v -10.734380 -0.234483 -5.090472
v 10.323597 -0.234483 -4.072378
v 10.323597 -0.234483 -5.090472
v 9.270700 -0.234483 5.090472
v 10.323597 -0.234483 5.090472
v -10.734380 -0.234483 -4.072378
v 10.323597 -0.234483 4.072378
v -9.681482 -0.234483 -4.072378
v -9.681482 -0.234483 4.072378
v 9.270700 -0.234483 -5.090472
v -9.681482 -0.234483 5.090472
v 9.270700 -0.234483 -4.072378
v 9.270700 -0.234483 4.072378
v -10.734380 5.574395 -4.072378
v -10.734380 5.574395 -5.090472
v 9.270700 7.041589 -5.090472
v 10.323597 7.041589 -5.090472
v 10.323597 8.032442 4.072378
v 10.323597 7.041589 5.090472
v -9.681482 5.574395 5.090472
v -10.734380 5.574395 5.090472
v -10.734380 5.574395 4.072378
v 10.323597 8.032442 -4.072378
v 9.270700 8.032442 -4.072378
v 9.270700 8.032442 4.072378
v -9.681482 5.574395 -5.090472
v 9.270700 7.041589 5.090472
v -9.681482 5.574395 -4.072378
v -9.681482 5.574395 4.072378
v -10.734380 6.464965 -4.072378
v -10.734380 6.464965 -5.090472
v -9.681482 6.464965 5.090472
v -10.734380 6.464965 5.090472
v -10.734380 6.464965 4.072378
v -9.681482 6.464965 -5.090472
v -9.681482 6.464965 -4.072378
v -9.681482 6.464965 4.072378
v -10.734380 2.695061 5.090472
v -10.734380 2.695061 -5.090472
v 10.323597 2.695061 -5.090472
v 10.323597 2.695061 5.090472
v 10.323597 2.695061 -4.072378
v 10.323597 2.695061 4.072378
v -10.734380 2.695061 4.072378
v -10.734380 2.695061 -4.072378
v 9.270700 2.128450 5.090472
v -9.681482 2.695061 5.090472
v -9.681482 1.868204 -5.090472
v 9.270700 2.695061 -5.090472
v -10.734380 0.926258 0.000000
v -10.734380 4.463863 0.000000
v 10.323597 0.926258 0.000000
v 10.323597 4.463863 0.000000
v -9.681482 0.926258 0.000000
v 9.270700 0.926258 0.000000
v 9.270700 4.816849 0.000000
v -9.681482 4.816849 0.000000
v -10.734380 5.574395 0.000000
v 10.323597 8.032442 0.000000
v 9.270700 8.032442 0.000000
v -9.681482 5.574395 0.000000
v -10.734380 2.695061 0.000000
v 10.323597 2.695061 0.000000
v 8.465877 5.617848 -1.995047
v 8.934987 4.518555 -2.139090
v 8.465877 5.617848 1.995047
v 8.934987 4.518555 2.139090
v 5.534270 5.514463 -2.081218
v 5.834639 4.329458 -2.830343
v 5.534270 5.514463 2.081218
v 5.834639 4.329458 2.830343
v 7.407876 4.728233 -2.830343
v 7.107507 5.913239 2.830343
v 7.407876 4.728233 2.830343
v 7.107507 5.913239 -2.830343
v 7.407876 4.728233 -2.830343
v 7.407876 4.728233 -2.830343
v 5.834639 4.329458 -2.830343
v 5.834639 4.329458 -2.830343
v 8.465877 5.617848 -1.995047
v 8.465877 5.617848 -1.995047
v 8.934987 4.518555 -2.139090
v 8.934987 4.518555 -2.139090
v 7.107507 5.913239 2.830343
v 7.107507 5.913239 2.830343
v 7.107507 5.913239 2.830343
v 5.534270 5.514463 2.081218
v 5.534270 5.514463 2.081218
v 8.465877 5.617848 1.995047
v 8.465877 5.617848 1.995047
v 7.407876 4.728233 2.830343
v 7.407876 4.728233 2.830343
v 8.934987 4.518555 2.139090
v 8.934987 4.518555 2.139090
v 7.107507 5.913239 -2.830343
v 7.107507 5.913239 -2.830343
v 7.107507 5.913239 -2.830343
v 5.834639 4.329458 2.830343
v 5.834639 4.329458 2.830343
v 5.534270 5.514463 -2.081218
v 5.534270 5.514463 -2.081218
vt 0.847017 0.347398
vt 0.875873 0.332351
vt 0.875873 0.347398
vt 0.737721 0.036672
vt 0.766577 0.021110
vt 0.766577 0.036672
vt 0.587793 0.347398
vt 0.616649 0.332351
vt 0.616649 0.347398
vt 0.891020 0.316789
vt 0.862163 0.332351
vt 0.862163 0.316789
vt 0.645506 0.467779
vt 0.664442 0.482827
vt 0.645506 0.482827
vt 0.828899 0.332351
vt 0.847017 0.332351
vt 0.587793 0.467779
vt 0.529575 0.407589
vt 0.587793 0.407589
vt 0.847017 0.482827
vt 0.828899 0.467779
vt 0.847017 0.467779
vt 0.713011 0.332351
vt 0.696402 0.349507
vt 0.696402 0.332351
vt 0.612621 0.021110
vt 0.679058 0.036672
vt 0.612621 0.036672
vt 0.587793 0.482827
vt 0.616649 0.467779
vt 0.616649 0.482827
vt 0.616649 0.407589
vt 0.875873 0.467779
vt 0.875873 0.482827
vt 0.847017 0.407589
vt 0.875873 0.407589
vt 0.612621 0.316789
vt 0.679058 0.332351
vt 0.612621 0.332351
vt 0.679058 0.316789
vt 0.814370 0.332351
vt 0.797193 0.349507
vt 0.797193 0.332351
vt 0.529575 0.036672
vt 0.546184 0.316789
vt 0.529575 0.316789
vt 0.545739 0.332351
vt 0.587793 0.332351
vt 0.245247 0.543606
vt 0.315706 0.950238
vt 0.229021 0.946749
vt 0.983081 0.156539
vt 0.933073 0.096348
vt 0.985533 0.096348
vt 0.119054 0.942207
vt 0.158509 0.540075
vt 0.142387 0.943262
vt 0.959961 0.246824
vt 0.947602 0.307015
vt 0.947602 0.246824
vt 0.331990 0.547025
vt 0.339871 0.951010
vt 0.762839 0.332351
vt 0.746230 0.349507
vt 0.746230 0.332351
vt 0.695668 0.316789
vt 0.862163 0.021110
vt 0.891020 0.036672
vt 0.852920 0.036672
vt 0.391499 0.549090
vt 0.389559 0.952735
vt 0.766578 0.332351
vt 0.737721 0.316789
vt 0.780067 0.316789
vt 0.136640 0.539121
vt 0.081434 0.940566
vt 0.081434 0.536713
vt 0.746230 0.349507
vt 0.762839 0.365069
vt 0.746230 0.365069
vt 0.664442 0.349507
vt 0.681051 0.365069
vt 0.664442 0.365069
vt 0.696402 0.349507
vt 0.713011 0.365069
vt 0.696402 0.365069
vt 0.729620 0.349507
vt 0.746230 0.365069
vt 0.729620 0.365069
vt 0.904730 0.332351
vt 0.923666 0.347398
vt 0.904730 0.347398
vt 0.681619 0.332351
vt 0.664442 0.349507
vt 0.664442 0.332351
vt 0.904730 0.467779
vt 0.923666 0.482827
vt 0.904730 0.482827
vt 0.729620 0.349507
vt 0.746230 0.332351
vt 0.746230 0.349507
vt 0.780016 0.332351
vt 0.762839 0.349507
vt 0.762839 0.332351
vt 0.795434 0.021110
vt 0.814370 0.036672
vt 0.795434 0.036672
vt 0.645506 0.332351
vt 0.664442 0.347398
vt 0.645506 0.347398
vt 0.797193 0.332351
vt 0.780016 0.349507
vt 0.780016 0.332351
vt 0.795434 0.316789
vt 0.814370 0.332351
vt 0.795434 0.332351
vt 0.833307 0.036672
vt 0.814370 0.021110
vt 0.833307 0.021110
vt 0.729620 0.332351
vt 0.713011 0.349507
vt 0.713011 0.332351
vt 0.833307 0.332351
vt 0.814370 0.316789
vt 0.833307 0.316789
vt 0.681873 0.332351
vt 0.696402 0.347913
vt 0.681873 0.347913
vt 0.947602 0.322062
vt 0.933073 0.307015
vt 0.950250 0.382253
vt 0.933073 0.442443
vt 0.933073 0.382253
vt 0.965719 0.246824
vt 0.982897 0.186634
vt 0.982897 0.246824
vt 0.965719 0.322062
vt 0.982897 0.307015
vt 0.982897 0.322062
vt 0.965719 0.186634
vt 0.982897 0.171586
vt 0.963370 0.186634
vt 0.947602 0.171586
vt 0.965719 0.171586
vt 0.737721 0.332351
vt 0.719604 0.316789
vt 0.949238 0.171586
vt 0.933073 0.156539
vt 0.545739 0.482827
vt 0.529575 0.467779
vt 0.963370 0.307015
vt 0.891020 0.021110
vt 0.933073 0.036672
vt 0.909137 0.332351
vt 0.891020 0.332351
vt 0.695668 0.021110
vt 0.737721 0.021110
vt 0.984620 0.036158
vt 0.949238 0.021110
vt 0.991291 0.021110
vt 0.828899 0.407589
vt 0.729620 0.365069
vt 0.713011 0.349507
vt 0.729620 0.349507
vt 0.779448 0.365069
vt 0.762839 0.349507
vt 0.779448 0.349507
vt 0.719604 0.332351
vt 0.705075 0.316789
vt 0.947602 0.186634
vt 0.933073 0.171586
vt 0.909137 0.316789
vt 0.923666 0.332351
vt 0.681873 0.347913
vt 0.696402 0.363475
vt 0.681873 0.363475
vt 0.828899 0.347398
vt 0.814370 0.332351
vt 0.828899 0.482827
vt 0.814370 0.467779
vt 0.904730 0.407589
vt 0.645506 0.407589
vt 0.965719 0.307015
vt 0.950250 0.322062
vt 0.933073 0.322062
vt 0.933073 0.036158
vt 0.546184 0.036672
vt 0.546184 0.332351
vt 0.546184 0.021110
vt 0.529575 0.347398
vt 0.312727 0.067236
vt 0.313864 0.061374
vt 0.313864 0.068130
vt 0.313864 0.062680
vt 0.315182 0.061374
vt 0.314969 0.063001
vt 0.001221 0.010864
vt 0.001221 0.010864
vt 0.001221 0.010864
vt 0.311562 0.063022
vt 0.312255 0.064732
vt 0.311155 0.064965
vt 0.312255 0.064732
vt 0.311661 0.067603
vt 0.311155 0.064965
vt 0.308426 0.067236
vt 0.309896 0.061374
vt 0.309896 0.068130
vt 0.309896 0.068130
vt 0.311155 0.062371
vt 0.311155 0.067133
vt 0.311511 0.061374
vt 0.312689 0.062884
vt 0.311562 0.063022
vt 0.001221 0.010864
vt 0.001221 0.010864
vt 0.314113 0.064585
vt 0.314969 0.063001
vt 0.315182 0.064994
vt 0.664442 0.467779
vt 0.713011 0.349507
vt 0.679058 0.021110
vt 0.814370 0.349507
vt 0.353866 0.547784
vt 0.762839 0.349507
vt 0.695668 0.036672
vt 0.762839 0.349507
vt 0.681051 0.349507
vt 0.713011 0.349507
vt 0.746230 0.349507
vt 0.923666 0.332351
vt 0.681619 0.349507
vt 0.923666 0.467779
vt 0.729620 0.332351
vt 0.780016 0.349507
vt 0.814370 0.021110
vt 0.664442 0.332351
vt 0.797193 0.349507
vt 0.814370 0.316789
vt 0.814370 0.036672
vt 0.729620 0.349507
vt 0.814370 0.332351
vt 0.696402 0.332351
vt 0.933073 0.322062
vt 0.950250 0.442443
vt 0.965719 0.171586
vt 0.991291 0.171586
vt 0.965719 0.322062
vt 0.933073 0.021110
vt 0.695668 0.036672
vt 0.713011 0.365069
vt 0.762839 0.365069
vt 0.705075 0.332351
vt 0.933073 0.186634
vt 0.923666 0.316789
vt 0.696402 0.347913
vt 0.814370 0.347398
vt 0.814370 0.482827
vt 0.312727 0.062268
vt 0.313943 0.061498
vt 0.001221 0.010864
vt 0.312689 0.062884
vt 0.312727 0.067193
vt 0.308426 0.062268
vt 0.309896 0.061374
vt 0.312727 0.061698
vt 0.313864 0.062680
vn -1.0000 0.0000 0.0000
vn -0.7071 0.0000 -0.7071
vn -0.2152 0.2604 -0.9412
vn 0.7071 0.0000 -0.7071
vn 0.0000 0.0000 -1.0000
vn 1.0000 0.0000 0.0000
vn 0.7071 0.0000 0.7071
vn 0.2665 0.2898 0.9192
vn -0.7071 0.0000 0.7071
vn 0.0000 0.0000 1.0000
vn 0.9045 -0.3015 0.3015
vn 0.5773 -0.5773 -0.5773
vn 0.7071 0.7071 0.0000
vn -0.9045 0.3015 -0.3015
vn -0.3015 -0.3015 -0.9045
vn -0.5773 -0.5773 0.5773
vn -0.3015 -0.9045 0.3015
vn 0.7071 -0.7071 0.0000
vn -0.3015 -0.9045 -0.3015
vn 0.0000 -1.0000 0.0000
vn -0.9045 -0.3015 -0.3015
vn -0.7071 -0.7071 0.0000
vn 0.3015 -0.9045 -0.3015
vn 0.9045 -0.3015 -0.3015
vn -0.5773 -0.5773 -0.5773
vn 0.3015 -0.9045 0.3015
vn 0.3015 -0.3015 -0.9045
vn 0.6291 0.3023 0.7161
vn 0.7138 0.7003 -0.0011
vn -0.7698 0.6233 0.1370
vn -0.7014 0.7126 -0.0082
vn -0.7071 0.7071 0.0000
vn 0.7147 0.6958 -0.0700
vn -0.7565 0.6424 -0.1223
vn 0.9045 0.3015 0.3015
vn 0.7139 0.6966 0.0712
vn -0.1999 0.2487 0.9477
vn 0.3015 -0.3015 0.9045
vn 0.2665 0.2898 -0.9192
vn -0.9045 -0.3015 0.3015
vn 0.5773 -0.5773 0.5773
vn -0.3015 -0.3015 0.9045
vn 0.5773 0.5773 -0.5773
vn 0.9045 0.3015 -0.3015
vn 0.5773 0.5773 0.5773
vn 0.6314 0.7184 0.2919
vn -0.6291 0.3023 -0.7161
vn 0.6314 0.7184 -0.2919
vn 0.6291 0.3023 -0.7161
vn -0.6314 0.7184 0.2919
vn -0.6291 0.3023 0.7161
vn -0.5773 0.5773 -0.5773
vn -0.5773 0.5773 0.5773
vn -0.9045 0.3015 0.3015
vn -0.6314 0.7184 -0.2919
vn -0.9693 -0.2457 0.0000
vn -0.2257 0.1814 0.9571
vn -0.3073 0.2470 0.9190
vn -0.1360 -0.9907 0.0000
vn 0.0859 -0.9963 0.0000
vn 0.4991 0.1985 -0.8435
vn 0.4725 0.2354 -0.8493
vn 0.4274 0.2944 -0.8548
vn 0.9197 0.3925 0.0000
vn -0.2457 0.9693 0.0000
vn 0.2125 0.9771 0.0000
vn -0.3073 0.2470 -0.9190
vn -0.2257 0.1814 -0.9571
vn 0.2457 -0.9693 0.0000
vn 0.4725 0.2354 0.8493
vn 0.4991 0.1985 0.8435
vn 0.4274 0.2944 0.8548
vn -0.4744 0.3813 0.7934
vn 0.5403 0.1369 -0.8302
vn -0.4744 0.3813 -0.7934
vn 0.5403 0.1369 0.8302
s 1
f 12/1/1 74/2/2 80/3/1
f 20/4/3 75/5/4 84/6/5
f 16/7/6 76/8/7 78/9/6
f 24/10/8 73/11/9 82/12/10
f 14/13/11 38/14/12 7/15/4
f 12/1/1 50/16/2 4/17/2
f 15/18/6 94/19/13 88/20/6
f 2/21/9 57/22/14 11/23/1
f 17/24/15 47/25/16 29/26/17
f 87/27/18 31/28/19 90/29/20
f 8/30/4 77/31/6 75/32/4
f 88/20/6 78/9/6 98/33/6
f 2/21/9 79/34/1 73/35/9
f 86/36/1 80/3/1 97/37/1
f 89/38/20 10/39/21 85/40/22
f 90/29/20 32/41/23 89/38/20
f 13/42/24 48/43/25 31/44/19
f 17/45/15 30/46/26 18/47/27
f 16/7/6 54/48/28 6/49/7
f 92/50/29 28/51/30 91/52/31
f 28/53/30 95/54/32 91/55/31
f 20/56/3 25/57/33 26/58/34
f 92/59/29 63/60/35 96/61/13
f 27/62/36 23/63/37 28/51/30
f 21/64/38 44/65/12 32/66/23
f 31/28/19 21/67/38 32/41/23
f 76/68/7 23/69/37 81/70/10
f 23/63/37 82/71/10 81/72/10
f 74/73/2 19/74/39 83/75/5
f 19/76/39 84/77/5 83/78/5
f 42/79/12 39/80/16 48/81/25
f 38/82/12 47/83/16 45/84/25
f 35/85/12 41/86/16 36/87/25
f 44/88/12 34/89/16 33/90/25
f 3/91/2 41/92/16 9/93/40
f 29/94/17 37/95/41 14/96/11
f 10/97/21 34/98/16 1/99/9
f 30/100/26 35/101/12 18/102/27
f 32/103/23 33/104/25 10/105/21
f 7/106/4 45/107/25 17/108/15
f 5/109/7 42/110/12 13/111/24
f 9/112/40 43/113/41 30/114/26
f 18/115/27 36/116/25 3/117/2
f 22/118/42 40/119/41 5/120/7
f 31/121/19 39/122/16 22/123/42
f 1/124/9 46/125/41 21/126/38
f 57/127/14 72/128/43 64/129/44
f 61/130/4 71/131/45 63/60/35
f 93/132/32 64/133/44 96/134/13
f 95/135/32 53/136/46 94/137/13
f 51/138/47 58/139/48 52/140/49
f 60/141/50 54/142/28 53/136/46
f 27/143/36 55/144/7 24/145/8
f 4/146/2 61/147/4 19/74/39
f 28/53/30 62/148/51 60/149/50
f 15/18/6 52/150/49 58/151/48
f 25/152/33 61/130/4 63/60/35
f 6/153/7 62/154/51 23/69/37
f 24/10/8 56/155/9 2/156/9
f 20/4/3 52/157/49 8/158/4
f 26/159/34 51/160/47 20/161/3
f 11/23/1 93/162/32 86/36/1
f 69/163/52 67/164/45 72/165/43
f 66/166/52 71/167/45 70/168/43
f 50/169/2 70/170/43 61/147/4
f 64/171/44 67/172/45 55/144/7
f 55/173/7 68/174/53 56/155/9
f 63/175/35 65/176/53 49/177/54
f 49/178/54 66/179/52 50/16/2
f 56/180/9 69/181/52 57/22/14
f 83/75/5 17/108/15 18/115/27
f 3/117/2 83/75/5 18/115/27
f 81/70/10 21/126/38 22/118/42
f 5/120/7 81/70/10 22/118/42
f 97/37/1 9/93/40 85/182/22
f 73/35/9 10/97/21 1/99/9
f 98/33/6 13/111/24 87/183/18
f 75/32/4 14/13/11 7/15/4
f 82/12/10 1/124/9 21/126/38
f 78/9/6 5/109/7 13/111/24
f 84/6/5 7/106/4 17/108/15
f 80/3/1 3/91/2 9/93/40
f 77/31/6 87/183/18 14/13/11
f 79/34/1 85/182/22 10/97/21
f 86/36/1 49/178/54 12/1/1
f 59/184/55 94/137/13 58/139/48
f 49/185/54 96/134/13 63/186/35
f 92/59/29 64/171/44 27/143/36
f 26/159/34 95/54/32 59/187/55
f 26/58/34 92/50/29 91/52/31
f 29/188/17 89/38/20 30/46/26
f 30/46/26 85/40/22 9/189/40
f 11/23/1 97/37/1 79/34/1
f 15/18/6 98/33/6 77/31/6
f 14/190/11 90/29/20 29/188/17
f 88/20/6 53/191/46 16/7/6
f 123/192/56 114/193/56 133/194/56
f 119/195/57 134/196/58 127/197/10
f 118/198/59 126/199/60 112/200/60
f 107/201/61 115/202/62 117/203/63
f 116/204/64 129/205/64 100/206/64
f 136/207/65 121/208/65 131/209/65
f 110/210/66 125/211/66 99/212/66
f 113/213/67 132/214/68 111/215/5
f 112/200/60 106/216/69 104/217/69
f 101/218/70 109/219/71 102/220/72
f 12/1/1 4/17/2 74/2/2
f 20/4/3 8/158/4 75/5/4
f 16/7/6 6/49/7 76/8/7
f 24/10/8 2/156/9 73/11/9
f 14/13/11 37/221/41 38/14/12
f 12/1/1 49/178/54 50/16/2
f 15/18/6 58/151/48 94/19/13
f 2/21/9 56/180/9 57/22/14
f 17/24/15 45/222/25 47/25/16
f 87/27/18 13/223/24 31/28/19
f 8/30/4 15/18/6 77/31/6
f 88/20/6 16/7/6 78/9/6
f 2/21/9 11/23/1 79/34/1
f 86/36/1 12/1/1 80/3/1
f 89/38/20 32/41/23 10/39/21
f 90/29/20 31/28/19 32/41/23
f 13/42/24 42/224/12 48/43/25
f 17/45/15 29/188/17 30/46/26
f 16/7/6 53/191/46 54/48/28
f 92/50/29 27/62/36 28/51/30
f 28/53/30 60/149/50 95/54/32
f 20/56/3 19/76/39 25/57/33
f 92/59/29 25/152/33 63/60/35
f 27/62/36 24/225/8 23/63/37
f 21/64/38 46/226/41 44/65/12
f 31/28/19 22/227/42 21/67/38
f 76/68/7 6/153/7 23/69/37
f 23/63/37 24/225/8 82/71/10
f 74/73/2 4/146/2 19/74/39
f 19/76/39 20/56/3 84/77/5
f 42/79/12 40/228/41 39/80/16
f 38/82/12 37/229/41 47/83/16
f 35/85/12 43/230/41 41/86/16
f 44/88/12 46/231/41 34/89/16
f 3/91/2 36/232/25 41/92/16
f 29/94/17 47/233/16 37/95/41
f 10/97/21 33/234/25 34/98/16
f 30/100/26 43/235/41 35/101/12
f 32/103/23 44/236/12 33/104/25
f 7/106/4 38/237/12 45/107/25
f 5/109/7 40/238/41 42/110/12
f 9/112/40 41/239/16 43/113/41
f 18/115/27 35/240/12 36/116/25
f 22/118/42 39/241/16 40/119/41
f 31/121/19 48/242/25 39/122/16
f 1/124/9 34/243/16 46/125/41
f 57/127/14 69/244/52 72/128/43
f 61/130/4 70/245/43 71/131/45
f 93/132/32 57/246/14 64/133/44
f 95/135/32 60/141/50 53/136/46
f 51/138/47 59/184/55 58/139/48
f 60/141/50 62/247/51 54/142/28
f 27/143/36 64/171/44 55/144/7
f 4/146/2 50/169/2 61/147/4
f 28/53/30 23/248/37 62/148/51
f 15/18/6 8/30/4 52/150/49
f 25/152/33 19/249/39 61/130/4
f 6/153/7 54/250/28 62/154/51
f 24/10/8 55/173/7 56/155/9
f 20/4/3 51/251/47 52/157/49
f 26/159/34 59/187/55 51/160/47
f 11/23/1 57/22/14 93/162/32
f 69/163/52 68/252/53 67/164/45
f 66/166/52 65/253/53 71/167/45
f 50/169/2 66/254/52 70/170/43
f 64/171/44 72/255/43 67/172/45
f 55/173/7 67/256/45 68/174/53
f 63/175/35 71/257/45 65/176/53
f 49/178/54 65/258/53 66/179/52
f 56/180/9 68/259/53 69/181/52
f 83/75/5 84/6/5 17/108/15
f 3/117/2 74/73/2 83/75/5
f 81/70/10 82/12/10 21/126/38
f 5/120/7 76/68/7 81/70/10
f 97/37/1 80/3/1 9/93/40
f 73/35/9 79/34/1 10/97/21
f 98/33/6 78/9/6 13/111/24
f 75/32/4 77/31/6 14/13/11
f 82/12/10 73/11/9 1/124/9
f 78/9/6 76/8/7 5/109/7
f 84/6/5 75/5/4 7/106/4
f 80/3/1 74/2/2 3/91/2
f 77/31/6 98/33/6 87/183/18
f 79/34/1 97/37/1 85/182/22
f 86/36/1 93/162/32 49/178/54
f 59/184/55 95/135/32 94/137/13
f 49/185/54 93/132/32 96/134/13
f 92/59/29 96/61/13 64/171/44
f 26/159/34 91/55/31 95/54/32
f 26/58/34 25/57/33 92/50/29
f 29/188/17 90/29/20 89/38/20
f 30/46/26 89/38/20 85/40/22
f 11/23/1 86/36/1 97/37/1
f 15/18/6 88/20/6 98/33/6
f 14/190/11 87/27/18 90/29/20
f 88/20/6 94/19/13 53/191/46
f 123/192/56 135/260/56 114/193/56
f 119/195/57 122/261/73 134/196/58
f 118/198/59 128/262/59 126/199/60
f 107/201/61 130/263/74 115/202/62
f 116/204/64 124/264/64 129/205/64
f 136/207/65 105/265/65 121/208/65
f 110/210/66 120/266/66 125/211/66
f 113/213/67 103/267/75 132/214/68
f 112/200/60 126/199/60 106/216/69
f 101/218/70 108/268/76 109/219/71
